<?xml version="1.0" standalone="no"?>
<!DOCTYPE svg PUBLIC "-//W3C//DTD SVG 20010904//EN"
 "http://www.w3.org/TR/2001/REC-SVG-20010904/DTD/svg10.dtd">
<svg version="1.0" xmlns="http://www.w3.org/2000/svg"
 width="456.000000pt" height="456.000000pt" viewBox="0 0 456.000000 456.000000"
 preserveAspectRatio="xMidYMid meet">
<metadata>
Created by potrace 1.14, written by Peter Selinger 2001-2017
</metadata>
<g transform="translate(0.000000,456.000000) scale(0.100000,-0.100000)"
fill="#000000" stroke="none">
<path d="M2068 3891 c-114 -45 -237 -164 -294 -286 -50 -108 -77 -261 -55
-317 5 -13 15 -42 22 -65 7 -24 16 -43 21 -43 20 0 5 -33 -33 -72 -58 -61
-198 -249 -254 -343 -82 -136 -192 -356 -224 -448 -28 -81 -31 -99 -31 -216 0
-103 4 -140 21 -192 50 -151 117 -241 249 -329 36 -24 67 -44 68 -46 10 -7
-11 -44 -25 -44 -8 0 -40 -7 -70 -16 -136 -40 -226 -203 -194 -351 11 -45 23
-65 68 -111 l55 -57 -5 -135 c-5 -132 -17 -192 -51 -258 -21 -40 -20 -42 7
-42 15 0 29 9 37 25 14 26 32 24 28 -3 -3 -15 13 -17 142 -20 l145 -3 -3 113
c-3 96 0 120 17 161 11 26 25 47 30 47 5 0 19 -13 31 -30 17 -23 23 -53 30
-143 5 -63 12 -122 16 -131 6 -15 62 -16 640 -16 l634 0 0 49 c0 86 10 90 44
20 l31 -64 158 -3 c86 -1 157 0 157 4 0 3 -17 36 -37 72 -53 93 -99 210 -125
314 l-21 89 41 42 c92 94 112 229 52 351 -58 118 -148 191 -267 217 -32 7 -60
14 -61 15 -2 1 11 19 29 38 42 47 80 115 110 196 22 59 24 81 24 230 0 129 -4
180 -18 235 -30 114 -82 243 -142 352 -30 57 -55 105 -55 109 0 20 -128 182
-222 280 -121 125 -209 196 -305 247 -37 18 -63 39 -63 48 0 8 7 36 16 62 12
35 15 74 12 154 -4 115 -22 172 -76 238 -71 86 -197 118 -304 76z m-23 -110
c7 -12 -34 -41 -57 -41 -26 0 -22 29 5 40 29 12 45 12 52 1z m-105 -67 c0 -13
-45 -79 -59 -88 -29 -17 -71 -68 -71 -85 0 -9 7 -29 15 -45 23 -43 15 -144
-12 -153 -18 -6 -36 74 -28 132 11 90 38 149 93 208 32 33 62 48 62 31z m-30
-148 c0 -19 -17 -29 -37 -22 -12 5 -13 9 -3 21 16 19 40 19 40 1z m501 -683
c25 -10 52 -32 70 -56 60 -83 25 -149 -97 -180 -165 -42 -552 -87 -628 -73
-73 14 -139 104 -122 169 13 53 155 116 315 138 209 30 390 31 462 2z m-910
-205 c-164 -326 -204 -592 -116 -783 10 -22 59 -80 109 -129 49 -49 85 -91 78
-94 -7 -2 -12 -15 -12 -28 0 -13 -5 -24 -10 -24 -29 0 -200 151 -200 176 0 7
-3 14 -7 16 -12 5 -44 78 -59 136 -17 64 -18 214 -3 279 27 113 76 228 174
408 21 39 43 80 49 92 6 13 14 23 19 23 4 0 7 7 7 15 0 8 5 15 10 15 6 0 10 7
10 15 0 8 4 15 9 15 5 0 -22 -60 -58 -132z m753 -596 c9 -126 1 -148 -54 -154
-22 -2 -45 -1 -51 3 -6 3 -9 52 -8 117 1 125 5 131 70 132 l36 0 7 -98z m-136
-31 c3 -125 -4 -146 -39 -115 -34 30 -49 77 -49 153 0 68 1 70 28 74 58 9 57
11 60 -112z m-460 -442 c48 -56 47 -61 -3 -41 -26 10 -46 21 -46 25 1 4 1 16
1 27 0 29 17 25 48 -11z m93 -599 c20 -11 26 -54 9 -65 -19 -12 -69 6 -75 26
-12 38 25 60 66 39z m-311 -324 c-5 -64 -13 -86 -27 -72 -4 3 -1 21 5 39 7 19
12 50 12 71 0 20 4 35 8 32 4 -2 5 -34 2 -70z"/>
</g>
</svg>
